<svg xmlns="http://www.w3.org/2000/svg" viewBox="0 0 225 141"><filter id="b"><feGaussianBlur stdDeviation="12" /></filter><path fill="#101d29" d="M0 0h225v141H0z"/><g filter="url(#b)" transform="translate(.5 .5)" fill-opacity=".5"><path fill="#6fb0f4" d="M11 114h91v23H11z"/><ellipse rx="1" ry="1" transform="matrix(-42.95845 1.5613 -4.08902 -112.50677 207.4 22.8)"/><ellipse fill="#128eff" cx="133" cy="133" rx="60" ry="4"/><path fill="#1b3b5c" d="M12 25l73 84 103-60z"/><path d="M41.4 126l-28-31.2L38.5 72l28 31.2z"/><ellipse rx="1" ry="1" transform="matrix(-44.71074 23.77312 -10.40838 -19.57531 140.9 99.7)"/><ellipse fill="#bfd5ee" rx="1" ry="1" transform="matrix(-2.62448 3.80873 -17.82265 -12.28103 33 124.6)"/><path fill="#9fb8d2" d="M37.7 139l3.5 3.7 34.3-35L43.7 122z"/></g></svg>